<svg xmlns="http://www.w3.org/2000/svg" width="600" height="400" viewBox="0 0 600 400">
  <defs>
    <linearGradient id="bg" x1="0" y1="0" x2="1" y2="1">
      <stop offset="0%" stop-color="#e8f4ff"/>
      <stop offset="100%" stop-color="#b9ddff"/>
    </linearGradient>
    <linearGradient id="bowl" x1="0" y1="0" x2="0" y2="1">
      <stop offset="0%" stop-color="#ffffff"/>
      <stop offset="100%" stop-color="#e7e7e7"/>
    </linearGradient>
  </defs>
  <rect width="100%" height="100%" fill="url(#bg)"/>
<ellipse cx="300" cy="250" rx="170" ry="80" fill="url(#bowl)"/><ellipse cx="300" cy="240" rx="140" ry="55" fill="#b9ddff"/><path d="M 190.0 200.0 C 245.0 192.0, 355.0 208.0, 410.0 200.0" stroke="#eaf4ff" stroke-width="6" fill="none" stroke-linecap="round"/><path d="M 190.0 210.0 C 245.0 202.0, 355.0 218.0, 410.0 210.0" stroke="#eaf4ff" stroke-width="6" fill="none" stroke-linecap="round"/><path d="M 190.0 220.0 C 245.0 212.0, 355.0 228.0, 410.0 220.0" stroke="#eaf4ff" stroke-width="6" fill="none" stroke-linecap="round"/><path d="M 190.0 230.0 C 245.0 222.0, 355.0 238.0, 410.0 230.0" stroke="#eaf4ff" stroke-width="6" fill="none" stroke-linecap="round"/><path d="M 190.0 240.0 C 245.0 232.0, 355.0 248.0, 410.0 240.0" stroke="#eaf4ff" stroke-width="6" fill="none" stroke-linecap="round"/><path d="M 190.0 250.0 C 245.0 242.0, 355.0 258.0, 410.0 250.0" stroke="#eaf4ff" stroke-width="6" fill="none" stroke-linecap="round"/><path d="M 190.0 260.0 C 245.0 252.0, 355.0 268.0, 410.0 260.0" stroke="#eaf4ff" stroke-width="6" fill="none" stroke-linecap="round"/><circle cx="240" cy="220" r="12" fill="#58a55c"/><circle cx="360" cy="220" r="12" fill="#58a55c"/></svg>