<svg xmlns="http://www.w3.org/2000/svg" width="600" height="400" viewBox="0 0 600 400">
  <defs>
    <linearGradient id="bg" x1="0" y1="0" x2="1" y2="1">
      <stop offset="0%" stop-color="#eef4f7"/>
      <stop offset="100%" stop-color="#cfe0ea"/>
    </linearGradient>
    <linearGradient id="bowl" x1="0" y1="0" x2="0" y2="1">
      <stop offset="0%" stop-color="#ffffff"/>
      <stop offset="100%" stop-color="#e7e7e7"/>
    </linearGradient>
  </defs>
  <rect width="100%" height="100%" fill="url(#bg)"/>
<ellipse cx="300" cy="260" rx="190" ry="70" fill="#ffffff" opacity="0.9"/><ellipse cx="300" cy="260" rx="170" ry="58" fill="#f4f4f4" opacity="0.9"/><circle cx="210" cy="250" r="32" fill="#2c2c2c"/><circle cx="210" cy="250" r="26" fill="#f3f3f3"/><circle cx="210" cy="250" r="18" fill="#f2c35f"/><circle cx="210" cy="245" r="6" fill="#58a55c"/><circle cx="216" cy="255" r="5" fill="#d96c2c"/><circle cx="270" cy="250" r="32" fill="#2c2c2c"/><circle cx="270" cy="250" r="26" fill="#f3f3f3"/><circle cx="270" cy="250" r="18" fill="#f2c35f"/><circle cx="270" cy="245" r="6" fill="#58a55c"/><circle cx="276" cy="255" r="5" fill="#d96c2c"/><circle cx="330" cy="250" r="32" fill="#2c2c2c"/><circle cx="330" cy="250" r="26" fill="#f3f3f3"/><circle cx="330" cy="250" r="18" fill="#f2c35f"/><circle cx="330" cy="245" r="6" fill="#58a55c"/><circle cx="336" cy="255" r="5" fill="#d96c2c"/><circle cx="390" cy="250" r="32" fill="#2c2c2c"/><circle cx="390" cy="250" r="26" fill="#f3f3f3"/><circle cx="390" cy="250" r="18" fill="#f2c35f"/><circle cx="390" cy="245" r="6" fill="#58a55c"/><circle cx="396" cy="255" r="5" fill="#d96c2c"/></svg>