<svg xmlns="http://www.w3.org/2000/svg" width="600" height="400" viewBox="0 0 600 400">
  <defs>
    <linearGradient id="bg" x1="0" y1="0" x2="1" y2="1">
      <stop offset="0%" stop-color="#eef7ff"/>
      <stop offset="100%" stop-color="#b9ddff"/>
    </linearGradient>
    <linearGradient id="food" x1="0" y1="0" x2="0" y2="1">
      <stop offset="0%" stop-color="#4aa3ff" stop-opacity="0.95"/>
      <stop offset="100%" stop-color="#4aa3ff" stop-opacity="0.75"/>
    </linearGradient>
  </defs>

  <rect width="100%" height="100%" fill="url(#bg)"/>

  <g opacity="0.3" fill="#1b3e7a">
    <circle cx="80" cy="70" r="40"/>
    <circle cx="520" cy="330" r="70"/>
  </g>

  <g fill="none" stroke="#1b3e7a" stroke-width="4" stroke-linecap="round" opacity="0.5">
    <path d="M247 88 c -8 -16 8 -28 0 -42" /><path d="M285 89 c -8 -16 8 -28 0 -42" /><path d="M330 97 c -8 -16 8 -28 0 -42" />
  </g>

  
  <ellipse cx="300" cy="250" rx="160" ry="70" fill="#ffffff" opacity="0.35"/>
  <ellipse cx="300" cy="250" rx="140" ry="55" fill="url(#food)"/>

  <rect x="210" y="150" width="180" height="8" rx="4" fill="#ffffff" opacity="0.45"/><rect x="210" y="168" width="180" height="8" rx="4" fill="#ffffff" opacity="0.45"/><rect x="210" y="186" width="180" height="8" rx="4" fill="#ffffff" opacity="0.45"/>

  <g fill="#ffffff" opacity="0.6">
    <circle cx="224" cy="197" r="6" /><circle cx="248" cy="126" r="10" /><circle cx="142" cy="149" r="10" /><circle cx="290" cy="149" r="7" /><circle cx="188" cy="175" r="9" /><circle cx="156" cy="153" r="11" />
  </g>

  <g font-family="Pretendard, 'Apple SD Gothic Neo', sans-serif" text-anchor="middle">
    <text x="300" y="320" font-size="30" fill="#1b3e7a" font-weight="700">해장국</text>
    <text x="300" y="346" font-size="14" fill="#1b3e7a" opacity="0.7">손그림 스타일 플레이스홀더</text>
  </g>
</svg>