<svg xmlns="http://www.w3.org/2000/svg" width="600" height="400" viewBox="0 0 600 400">
  <defs>
    <linearGradient id="bg" x1="0" y1="0" x2="1" y2="1">
      <stop offset="0%" stop-color="#f3f5ff"/>
      <stop offset="100%" stop-color="#bcd2ff"/>
    </linearGradient>
    <linearGradient id="food" x1="0" y1="0" x2="0" y2="1">
      <stop offset="0%" stop-color="#4b78ff" stop-opacity="0.95"/>
      <stop offset="100%" stop-color="#4b78ff" stop-opacity="0.75"/>
    </linearGradient>
  </defs>

  <rect width="100%" height="100%" fill="url(#bg)"/>

  <g opacity="0.3" fill="#1d2e6b">
    <circle cx="80" cy="70" r="40"/>
    <circle cx="520" cy="330" r="70"/>
  </g>

  <g fill="none" stroke="#1d2e6b" stroke-width="4" stroke-linecap="round" opacity="0.5">
    <path d="M242 89 c -8 -16 8 -28 0 -42" /><path d="M294 96 c -8 -16 8 -28 0 -42" /><path d="M332 85 c -8 -16 8 -28 0 -42" />
  </g>

  
  <ellipse cx="300" cy="250" rx="160" ry="70" fill="#ffffff" opacity="0.35"/>
  <ellipse cx="300" cy="250" rx="140" ry="55" fill="url(#food)"/>

  

  <g fill="#ffffff" opacity="0.6">
    <circle cx="252" cy="134" r="10" /><circle cx="256" cy="175" r="11" /><circle cx="229" cy="194" r="12" /><circle cx="168" cy="150" r="9" /><circle cx="176" cy="173" r="9" />
  </g>

  <g font-family="Pretendard, 'Apple SD Gothic Neo', sans-serif" text-anchor="middle">
    <text x="300" y="320" font-size="30" fill="#1d2e6b" font-weight="700">핫도그</text>
    <text x="300" y="346" font-size="14" fill="#1d2e6b" opacity="0.7">손그림 스타일 플레이스홀더</text>
  </g>
</svg>