<svg xmlns="http://www.w3.org/2000/svg" width="600" height="400" viewBox="0 0 600 400">
  <defs>
    <linearGradient id="bg" x1="0" y1="0" x2="1" y2="1">
      <stop offset="0%" stop-color="#eef7ff"/>
      <stop offset="100%" stop-color="#b9ddff"/>
    </linearGradient>
    <linearGradient id="food" x1="0" y1="0" x2="0" y2="1">
      <stop offset="0%" stop-color="#4aa3ff" stop-opacity="0.95"/>
      <stop offset="100%" stop-color="#4aa3ff" stop-opacity="0.75"/>
    </linearGradient>
  </defs>

  <rect width="100%" height="100%" fill="url(#bg)"/>

  <g opacity="0.3" fill="#1b3e7a">
    <circle cx="80" cy="70" r="40"/>
    <circle cx="520" cy="330" r="70"/>
  </g>

  <g fill="none" stroke="#1b3e7a" stroke-width="4" stroke-linecap="round" opacity="0.5">
    <path d="M258 91 c -8 -16 8 -28 0 -42" /><path d="M292 82 c -8 -16 8 -28 0 -42" /><path d="M337 86 c -8 -16 8 -28 0 -42" />
  </g>

  
  <ellipse cx="300" cy="250" rx="160" ry="70" fill="#ffffff" opacity="0.35"/>
  <ellipse cx="300" cy="250" rx="140" ry="55" fill="url(#food)"/>

  

  <g fill="#ffffff" opacity="0.6">
    <circle cx="239" cy="141" r="13" /><circle cx="270" cy="132" r="7" /><circle cx="280" cy="158" r="6" /><circle cx="199" cy="196" r="12" /><circle cx="134" cy="194" r="9" /><circle cx="222" cy="184" r="7" /><circle cx="265" cy="178" r="7" /><circle cx="164" cy="188" r="14" />
  </g>

  <g font-family="Pretendard, 'Apple SD Gothic Neo', sans-serif" text-anchor="middle">
    <text x="300" y="320" font-size="30" fill="#1b3e7a" font-weight="700">회덮밥</text>
    <text x="300" y="346" font-size="14" fill="#1b3e7a" opacity="0.7">손그림 스타일 플레이스홀더</text>
  </g>
</svg>