<svg xmlns="http://www.w3.org/2000/svg" width="600" height="400" viewBox="0 0 600 400">
  <defs>
    <linearGradient id="bg" x1="0" y1="0" x2="1" y2="1">
      <stop offset="0%" stop-color="#f5efe8"/>
      <stop offset="100%" stop-color="#e7c9b7"/>
    </linearGradient>
    <linearGradient id="bowl" x1="0" y1="0" x2="0" y2="1">
      <stop offset="0%" stop-color="#ffffff"/>
      <stop offset="100%" stop-color="#e7e7e7"/>
    </linearGradient>
  </defs>
  <rect width="100%" height="100%" fill="url(#bg)"/>
<ellipse cx="300" cy="260" rx="190" ry="70" fill="#ffffff" opacity="0.9"/><ellipse cx="300" cy="260" rx="170" ry="58" fill="#f4f4f4" opacity="0.9"/><rect x="200" y="225" width="30" height="70" rx="10" fill="#d9a07a"/><rect x="240" y="225" width="30" height="70" rx="10" fill="#d9a07a"/><rect x="280" y="225" width="30" height="70" rx="10" fill="#d9a07a"/><rect x="320" y="225" width="30" height="70" rx="10" fill="#d9a07a"/><rect x="360" y="225" width="30" height="70" rx="10" fill="#d9a07a"/><rect x="205" y="230" width="20" height="60" rx="8" fill="#f3d5bf"/><rect x="245" y="230" width="20" height="60" rx="8" fill="#f3d5bf"/><rect x="285" y="230" width="20" height="60" rx="8" fill="#f3d5bf"/><rect x="325" y="230" width="20" height="60" rx="8" fill="#f3d5bf"/><rect x="365" y="230" width="20" height="60" rx="8" fill="#f3d5bf"/></svg>