<svg xmlns="http://www.w3.org/2000/svg" width="600" height="400" viewBox="0 0 600 400">
  <defs>
    <linearGradient id="bg" x1="0" y1="0" x2="1" y2="1">
      <stop offset="0%" stop-color="#fff4e6"/>
      <stop offset="100%" stop-color="#ffd28a"/>
    </linearGradient>
    <linearGradient id="food" x1="0" y1="0" x2="0" y2="1">
      <stop offset="0%" stop-color="#ff9b2f" stop-opacity="0.95"/>
      <stop offset="100%" stop-color="#ff9b2f" stop-opacity="0.75"/>
    </linearGradient>
  </defs>

  <rect width="100%" height="100%" fill="url(#bg)"/>

  <g opacity="0.3" fill="#7a3a00">
    <circle cx="80" cy="70" r="40"/>
    <circle cx="520" cy="330" r="70"/>
  </g>

  <g fill="none" stroke="#7a3a00" stroke-width="4" stroke-linecap="round" opacity="0.5">
    <path d="M254 84 c -8 -16 8 -28 0 -42" /><path d="M287 93 c -8 -16 8 -28 0 -42" /><path d="M329 90 c -8 -16 8 -28 0 -42" />
  </g>

  <ellipse cx="300" cy="250" rx="150" ry="70" fill="#ffffff" opacity="0.85"/>
  <ellipse cx="300" cy="250" rx="160" ry="70" fill="#ffffff" opacity="0.35"/>
  <ellipse cx="300" cy="250" rx="140" ry="55" fill="url(#food)"/>

  <rect x="210" y="150" width="180" height="8" rx="4" fill="#ffffff" opacity="0.45"/><rect x="210" y="168" width="180" height="8" rx="4" fill="#ffffff" opacity="0.45"/><rect x="210" y="186" width="180" height="8" rx="4" fill="#ffffff" opacity="0.45"/>

  <g fill="#ffffff" opacity="0.6">
    <circle cx="147" cy="206" r="6" /><circle cx="200" cy="143" r="6" /><circle cx="152" cy="189" r="7" /><circle cx="263" cy="175" r="11" /><circle cx="221" cy="178" r="8" /><circle cx="162" cy="129" r="13" />
  </g>

  <g font-family="Pretendard, 'Apple SD Gothic Neo', sans-serif" text-anchor="middle">
    <text x="300" y="320" font-size="30" fill="#7a3a00" font-weight="700">샌드위치</text>
    <text x="300" y="346" font-size="14" fill="#7a3a00" opacity="0.7">손그림 스타일 플레이스홀더</text>
  </g>
</svg>