<svg xmlns="http://www.w3.org/2000/svg" width="600" height="400" viewBox="0 0 600 400">
  <defs>
    <linearGradient id="bg" x1="0" y1="0" x2="1" y2="1">
      <stop offset="0%" stop-color="#ffe8e0"/>
      <stop offset="100%" stop-color="#ffb39a"/>
    </linearGradient>
    <linearGradient id="bowl" x1="0" y1="0" x2="0" y2="1">
      <stop offset="0%" stop-color="#ffffff"/>
      <stop offset="100%" stop-color="#e7e7e7"/>
    </linearGradient>
  </defs>
  <rect width="100%" height="100%" fill="url(#bg)"/>
<ellipse cx="300" cy="250" rx="170" ry="80" fill="url(#bowl)"/><ellipse cx="300" cy="240" rx="140" ry="55" fill="#c9432f"/><circle cx="355.0" cy="235.0" r="12" fill="#f2c35f"/><circle cx="327.5" cy="263.6" r="12" fill="#f2c35f"/><circle cx="272.5" cy="263.6" r="12" fill="#f2c35f"/><circle cx="245.0" cy="235.0" r="12" fill="#f2c35f"/><circle cx="272.5" cy="206.4" r="12" fill="#f2c35f"/><circle cx="327.5" cy="206.4" r="12" fill="#f2c35f"/><rect x="260" y="210" width="80" height="12" rx="6" fill="#58a55c"/><g fill="none" stroke="#7a3b00" stroke-width="4" stroke-linecap="round" opacity="0.4"><path d="M240 120 c -10 -18 10 -30 0 -46" /><path d="M300 118 c -10 -18 10 -30 0 -46" /><path d="M360 120 c -10 -18 10 -30 0 -46" /></g><rect x="230" y="210" width="40" height="14" rx="7" fill="#f3c16b"/><rect x="330" y="210" width="40" height="14" rx="7" fill="#f3c16b"/></svg>